<?xml version="1.0" standalone="no"?>
<!DOCTYPE svg PUBLIC "-//W3C//DTD SVG 20010904//EN"
 "http://www.w3.org/TR/2001/REC-SVG-20010904/DTD/svg10.dtd">
<svg version="1.0" xmlns="http://www.w3.org/2000/svg"
 width="400.000000pt" height="400.000000pt" viewBox="0 0 400.000000 400.000000"
 preserveAspectRatio="xMidYMid meet">

<g transform="translate(0.000000,400.000000) scale(0.100000,-0.100000)"
fill="#000000" stroke="none">
<path d="M0 2000 l0 -2000 2000 0 2000 0 0 2000 0 2000 -2000 0 -2000 0 0
-2000z m1739 1283 c-62 -82 -129 -169 -149 -195 -25 -34 -40 -45 -55 -42 -16
4 -42 -25 -129 -141 -72 -96 -115 -145 -127 -145 -11 0 -19 3 -19 7 0 4 51 74
113 156 61 81 111 154 109 162 -2 10 182 278 219 319 9 10 69 23 117 25 l33 1
-112 -147z m380 141 l32 -7 -58 -61 c-265 -282 -313 -329 -325 -319 -10 7 -51
-30 -161 -148 -97 -103 -153 -156 -163 -152 -8 3 -14 8 -14 12 0 5 67 79 150
166 99 105 147 162 141 169 -6 7 42 68 142 178 142 155 154 166 188 167 20 1
51 -2 68 -5z m-660 -223 c-79 -129 -108 -169 -120 -166 -12 4 -39 -30 -105
-136 -75 -119 -116 -168 -132 -154 -2 2 40 74 94 160 68 111 93 160 84 165 -9
5 10 45 64 137 l76 130 68 20 c37 12 69 19 71 17 2 -1 -43 -79 -100 -173z
m912 168 c19 -7 37 -15 42 -19 4 -3 -39 -47 -95 -96 -57 -49 -149 -130 -205
-181 -56 -51 -105 -89 -108 -83 -3 5 -10 10 -15 10 -8 0 -102 -78 -307 -257
-40 -35 -76 -63 -80 -63 -48 1 18 67 289 291 55 46 74 67 67 76 -7 8 40 57
168 172 98 89 185 161 194 161 9 0 31 -5 50 -11z m-1061 -91 c0 -2 -38 -75
-83 -163 -58 -114 -86 -160 -97 -158 -11 3 -33 -33 -75 -118 -44 -89 -67 -125
-87 -135 -16 -8 -28 -13 -28 -12 0 2 33 67 74 146 59 115 70 144 59 151 -12 6
-6 26 36 109 49 98 52 102 118 141 60 36 84 47 83 39z m1328 -34 c24 -14 40
-30 35 -34 -8 -7 -387 -266 -446 -305 -19 -12 -31 -14 -40 -7 -9 8 -72 -30
-241 -145 -205 -138 -230 -153 -244 -139 -13 13 10 31 222 171 175 116 234
160 227 169 -7 9 35 43 162 129 95 65 195 133 222 152 28 18 52 34 54 34 2 1
24 -11 49 -25z m-1614 -231 c-24 -65 -51 -137 -60 -159 -8 -23 -23 -44 -32
-46 -12 -3 -25 -27 -37 -68 -18 -61 -48 -110 -65 -110 -5 0 6 44 24 97 31 87
33 98 19 109 -14 10 -13 19 12 88 25 69 36 84 99 141 39 36 74 65 78 65 3 0
-14 -53 -38 -117z m1839 70 c20 -16 36 -31 37 -34 0 -4 -75 -48 -167 -99 -93
-51 -215 -120 -273 -153 -62 -36 -106 -55 -108 -48 -2 6 -7 11 -11 11 -9 0
-472 -258 -485 -271 -10 -9 -36 7 -36 21 0 4 75 49 168 100 332 184 332 184
327 201 -4 11 52 48 222 143 126 71 237 135 248 142 29 19 38 17 78 -13z m190
-204 c16 -23 27 -42 25 -44 -8 -7 -569 -255 -577 -255 -5 0 -11 4 -13 10 -1 5
-106 -33 -233 -86 -345 -143 -335 -140 -346 -123 -5 8 -9 16 -9 19 0 3 62 29
138 59 339 133 432 175 427 191 -4 13 52 43 272 142 153 70 280 126 283 127 3
0 18 -18 33 -40z m-2248 -104 c-25 -99 -36 -130 -48 -129 -11 1 -20 -17 -32
-60 -15 -55 -49 -115 -60 -105 -2 3 7 42 21 89 28 99 27 90 9 90 -8 0 -15 4
-15 10 0 21 147 248 154 238 2 -1 -11 -61 -29 -133z m2394 -146 c13 -22 21
-42 19 -44 -4 -5 -183 -61 -442 -140 -139 -43 -190 -55 -196 -46 -5 9 -82 -9
-291 -68 -156 -43 -292 -82 -301 -86 -17 -7 -19 -4 -22 27 -1 7 115 43 299 93
250 69 300 85 300 100 0 10 11 22 25 27 45 17 565 177 576 178 6 0 21 -18 33
-41z m-2592 -175 c-6 -59 -64 -230 -75 -220 -8 9 65 286 75 286 3 0 3 -30 0
-66z m2693 -125 c6 -23 8 -45 3 -49 -7 -7 -607 -100 -640 -100 -7 0 -13 7 -13
16 0 10 -6 14 -17 10 -10 -3 -146 -23 -303 -46 -157 -22 -291 -43 -299 -46
-15 -5 -31 12 -31 34 0 6 8 12 18 12 9 0 153 18 320 41 255 36 302 45 302 59
0 17 55 27 435 85 216 33 212 34 225 -16z m40 -339 l0 -50 -335 0 c-268 0
-335 3 -335 13 0 11 -63 12 -326 9 l-326 -5 4 23 3 22 321 -1 c316 -2 322 -2
327 19 5 20 11 20 336 20 l331 0 0 -50z m-1075 -175 c180 -24 296 -40 358 -50
19 -3 27 0 27 10 0 21 11 20 353 -32 l308 -47 -6 -40 c-4 -23 -11 -45 -15 -50
-8 -8 -623 79 -642 91 -5 2 -8 10 -8 17 0 8 -92 24 -316 53 -173 23 -318 44
-321 47 -3 3 -3 12 1 21 4 12 14 15 38 11 18 -3 119 -17 223 -31z m-1695 -156
c21 -50 33 -97 36 -144 l4 -70 -15 40 c-14 35 -65 233 -65 252 0 14 11 -7 40
-78z m1735 -26 c182 -49 281 -71 283 -64 2 6 9 11 15 11 6 0 148 -42 314 -92
213 -65 302 -97 298 -105 -3 -7 -7 -19 -10 -26 -7 -15 34 -37 68 -37 21 0 126
49 152 70 6 5 35 8 63 6 29 -1 52 1 52 6 0 19 45 6 72 -22 15 -16 33 -30 38
-30 6 0 10 -7 10 -15 0 -8 4 -15 8 -15 17 0 29 -44 20 -70 -15 -40 5 -70 46
-70 27 0 40 -7 60 -32 17 -22 21 -35 13 -40 -6 -3 -15 -4 -19 -2 -5 3 -11 -3
-15 -13 -3 -10 -12 -22 -20 -26 -8 -5 -11 -18 -7 -35 3 -15 7 -40 10 -56 2
-16 8 -34 14 -40 6 -8 4 -21 -5 -39 -13 -25 -12 -29 5 -40 11 -6 20 -21 20
-33 0 -12 7 -27 15 -34 11 -9 12 -17 4 -32 -6 -11 -13 -17 -16 -14 -4 3 -14
-1 -24 -10 -20 -18 -49 -13 -49 9 0 8 -12 14 -32 15 -18 0 -50 4 -70 7 -28 5
-41 3 -53 -9 -19 -18 -41 -21 -50 -6 -5 8 -11 7 -21 -1 -8 -6 -48 -13 -89 -14
-46 -2 -84 -9 -98 -18 -64 -41 -166 -51 -213 -20 -18 12 -27 11 -68 -7 -53
-22 -102 -26 -108 -8 -8 23 -30 -4 -23 -29 4 -19 -2 -32 -28 -59 -40 -41 -58
-38 -74 14 -11 34 -10 39 15 65 18 18 21 27 11 27 -8 0 -23 -9 -33 -21 -19
-22 -34 -22 -95 2 -33 14 -33 14 -72 -31 -21 -25 -39 -41 -39 -36 0 5 -6 4
-12 -2 -21 -16 -124 -25 -147 -12 -15 7 -33 7 -66 -1 -44 -11 -46 -11 -85 25
-45 41 -60 45 -60 16 0 -15 -7 -20 -27 -20 -16 -1 -38 -6 -51 -13 l-22 -13 21
-23 c11 -12 19 -24 18 -26 -2 -2 -31 -5 -63 -6 l-60 -3 -65 72 c-54 58 -70 70
-88 66 -26 -7 -45 23 -24 36 9 5 6 9 -8 13 -12 3 -21 13 -21 22 0 9 -24 45
-54 78 -29 34 -51 68 -49 74 5 13 -47 72 -210 239 -75 77 -86 92 -70 98 14 6
44 -20 149 -130 97 -101 135 -135 145 -128 8 5 21 9 29 9 17 0 16 51 -1 72 -7
8 -4 15 8 23 15 9 14 10 -7 4 -46 -14 -65 -10 -65 11 -1 11 -5 27 -10 34 -5
10 -4 16 3 19 22 7 13 22 -13 22 -18 0 -25 5 -25 19 0 11 -18 34 -40 51 -38
30 -44 50 -17 50 7 0 36 -21 65 -46 35 -30 52 -40 52 -30 0 9 6 16 13 17 6 0
2 4 -10 9 -27 11 -29 22 -7 55 14 21 14 24 -2 33 -21 12 -10 32 17 32 27 0 36
28 14 44 -26 19 -13 40 41 65 39 19 51 21 69 11 12 -7 31 -11 41 -10 35 4 43
0 46 -22 5 -36 117 -91 193 -95 33 -1 84 -6 113 -9 45 -6 52 -4 52 10 0 9 10
21 23 25 20 8 18 11 -28 31 -43 19 -302 124 -374 151 -21 9 -23 12 -10 24 13
13 43 4 243 -77 187 -75 232 -89 247 -80 46 29 135 52 179 47 41 -5 43 -5 20
7 -14 7 -25 20 -25 28 0 11 -77 35 -300 94 -165 44 -301 81 -303 81 -1 1 0 10
4 19 8 21 -23 27 339 -71z m-1580 -246 c12 -48 22 -67 32 -65 12 2 23 -28 47
-124 17 -71 29 -128 26 -128 -11 1 -150 215 -150 232 0 4 7 8 16 8 10 0 14 5
10 15 -3 9 -13 44 -21 78 -9 34 -19 71 -22 82 -4 18 -2 17 19 -5 15 -15 32
-52 43 -93z m124 -53 c11 -14 31 -58 43 -96 15 -47 29 -73 42 -77 14 -6 35
-52 76 -164 32 -86 56 -157 54 -157 -2 0 -35 27 -74 61 -69 59 -78 73 -116
177 -18 51 -18 54 -1 63 10 6 15 14 12 19 -16 26 -73 200 -66 200 5 0 19 -12
30 -26z m201 -194 c53 -106 68 -129 84 -126 15 4 32 -24 97 -161 44 -91 78
-167 76 -169 -1 -2 -35 15 -74 38 l-71 41 -46 99 c-49 105 -52 114 -35 120 5
2 -24 69 -65 150 -42 81 -76 149 -76 152 0 3 10 1 23 -5 14 -6 44 -54 87 -139z
m100 70 c3 -4 43 -69 90 -144 61 -98 89 -134 101 -131 11 4 44 -42 123 -171
59 -96 106 -177 105 -178 -2 -2 -34 5 -70 16 l-66 20 -81 133 c-67 111 -78
136 -67 145 12 10 8 21 -24 68 -53 79 -161 252 -161 258 0 7 44 -7 50 -16z
m260 -145 c91 -115 119 -143 135 -140 16 4 48 -33 168 -194 81 -108 147 -200
147 -202 0 -3 -30 -1 -66 5 l-67 10 -123 165 c-89 118 -121 168 -113 177 7 8
2 20 -14 40 -13 16 -70 86 -126 157 -87 109 -98 127 -78 127 17 0 50 -34 137
-145z"/>
<path d="M1804 1469 c-3 -5 -12 -9 -20 -9 -8 0 -24 -8 -35 -19 -17 -16 -18
-19 -4 -31 19 -16 19 -46 0 -54 -8 -3 -15 -16 -15 -29 0 -14 -7 -30 -15 -37
-8 -7 -15 -19 -15 -28 0 -12 9 -14 48 -9 l47 7 -38 -22 c-26 -16 -37 -29 -36
-43 1 -11 -1 -27 -4 -35 -3 -8 -8 -28 -12 -43 l-6 -29 53 7 53 7 -19 -21 c-14
-16 -17 -24 -9 -32 6 -6 9 -18 6 -25 -3 -9 2 -14 13 -14 18 -1 17 -2 -2 -18
-19 -16 -20 -20 -6 -40 9 -14 10 -22 3 -22 -6 0 -16 9 -23 20 -17 27 -43 28
-29 1 8 -15 7 -20 -6 -25 -15 -6 -14 -8 4 -21 12 -8 28 -12 37 -9 9 3 16 2 16
-4 0 -5 12 -13 26 -16 25 -7 25 -8 10 -31 -9 -14 -12 -25 -6 -25 5 0 10 -8 10
-19 0 -11 9 -21 22 -24 21 -6 18 -22 -5 -22 -5 0 -12 -6 -15 -14 -4 -11 6 -13
53 -7 51 6 55 5 42 -9 -9 -8 -24 -15 -34 -15 -10 0 -25 -5 -33 -11 -11 -8 -5
-9 24 -4 33 5 38 4 33 -9 -9 -22 6 -20 28 4 15 17 20 18 44 6 14 -7 32 -11 39
-9 7 3 12 1 11 -4 -5 -26 5 -41 37 -56 25 -13 40 -14 54 -7 10 5 30 10 43 10
22 0 26 6 32 40 6 38 9 40 41 40 45 0 111 -33 152 -77 30 -32 35 -34 80 -28
75 9 119 26 132 49 6 11 22 29 35 39 24 17 26 17 62 -1 41 -21 56 -19 87 10
24 22 35 23 42 3 4 -9 -4 -25 -20 -40 -24 -22 -25 -25 -12 -57 13 -31 36 -50
36 -30 0 5 10 20 23 33 14 16 22 37 22 59 0 29 3 34 20 32 11 -2 22 -8 25 -12
7 -12 48 -6 94 14 48 20 60 20 81 0 23 -24 126 -14 185 17 32 16 63 24 106 24
34 1 76 8 94 15 27 11 33 11 40 -1 7 -11 13 -10 30 6 18 17 27 18 80 9 36 -6
64 -6 69 -1 11 11 34 -1 26 -14 -14 -21 7 -29 36 -12 31 18 35 28 19 38 -5 3
-10 17 -10 30 0 13 -9 30 -21 38 -20 14 -20 16 -5 46 9 17 12 31 7 31 -8 0
-18 38 -26 95 -2 11 -6 28 -10 38 -4 10 -3 17 5 17 6 0 8 -5 4 -12 -6 -10 -3
-9 8 0 9 8 18 23 20 35 2 16 9 21 23 19 18 -4 18 -2 -4 22 -17 18 -35 26 -58
26 -40 0 -55 28 -46 83 3 23 0 38 -11 50 -9 8 -16 20 -16 26 0 6 -5 11 -11 11
-6 0 -22 14 -36 30 -24 29 -53 40 -53 21 0 -6 -26 -8 -57 -7 -37 2 -63 -1 -73
-9 -8 -7 -43 -27 -76 -44 -51 -26 -67 -30 -88 -21 -14 5 -26 7 -26 4 0 -4 -6
-2 -13 4 -8 7 -27 7 -62 0 -60 -13 -114 -12 -131 3 -7 6 -17 8 -22 5 -12 -7
-72 13 -72 24 0 15 -42 23 -50 9 -11 -16 -38 4 -51 39 -8 20 -14 23 -35 18
-38 -10 -61 1 -73 35 -9 28 -12 29 -30 17 -14 -10 -39 -12 -92 -8 -57 5 -86 2
-128 -12 -60 -20 -148 -71 -171 -100 -19 -22 -23 -22 -162 -9 -135 14 -198 40
-213 89 -8 27 -14 33 -35 30 -14 -1 -32 2 -40 7 -21 13 -39 15 -46 4z m253
-179 c25 -20 21 -30 -13 -30 -30 0 -39 -16 -17 -29 14 -8 1 -10 -49 -9 -37 1
-65 5 -62 10 3 4 -7 8 -22 8 -26 0 -27 -1 -9 -14 18 -13 17 -13 -8 -13 -15 0
-27 4 -27 9 0 6 -16 8 -35 6 -40 -5 -47 8 -10 18 14 3 33 19 42 35 11 19 27
29 47 32 54 7 140 -5 163 -23z"/>
<path d="M1903 1303 c-17 -2 -34 -11 -37 -18 -3 -8 -2 -14 2 -14 20 3 25 -2
12 -12 -13 -9 -13 -10 0 -8 14 3 61 -6 104 -18 11 -3 16 -1 12 6 -4 5 7 17 25
26 34 18 33 25 -3 29 -12 2 -36 5 -53 8 -16 3 -44 3 -62 1z"/>
<path d="M2846 1385 c7 -17 22 -19 42 -6 10 6 8 10 -10 14 -34 10 -38 9 -32
-8z"/>
<path d="M2926 1367 c27 -20 74 -32 74 -19 0 5 -12 13 -27 16 -16 4 -37 9 -48
12 -19 6 -19 5 1 -9z"/>
<path d="M3020 1338 c17 -17 80 -32 80 -19 0 5 -12 11 -27 14 -16 3 -37 9 -48
13 -18 6 -18 5 -5 -8z"/>
<path d="M1660 1190 c0 -5 9 -10 21 -10 11 0 17 5 14 10 -3 6 -13 10 -21 10
-8 0 -14 -4 -14 -10z"/>
</g>
</svg>
